<?xml version="1.0" standalone="no"?>
<!DOCTYPE svg PUBLIC "-//W3C//DTD SVG 20010904//EN"
 "http://www.w3.org/TR/2001/REC-SVG-20010904/DTD/svg10.dtd">
<svg version="1.0" xmlns="http://www.w3.org/2000/svg"
 width="1080.000000pt" height="1080.000000pt" viewBox="0 0 1080.000000 1080.000000"
 preserveAspectRatio="xMidYMid meet">
<metadata>
Created by potrace 1.14, written by Peter Selinger 2001-2017
</metadata>
<g transform="translate(0.000000,1080.000000) scale(0.100000,-0.100000)"
fill="#000000" stroke="none">
<path d="M356 10708 c-21 -324 -16 -607 15 -793 25 -148 83 -284 173 -405 30
-40 54 -76 51 -78 -2 -2 -36 19 -77 46 -100 67 -273 166 -329 186 l-46 18 -6
176 c-5 136 -12 201 -31 282 -24 102 -72 249 -95 286 -22 36 -5 -107 23 -196
51 -165 69 -344 53 -548 -8 -109 -25 -188 -62 -290 -16 -43 -25 -88 -23 -110
l3 -37 29 55 c37 70 73 175 86 253 16 91 14 89 57 70 110 -45 400 -232 628
-403 621 -467 1113 -1013 1164 -1294 9 -47 8 -79 -5 -155 -14 -80 -27 -117
-79 -221 -125 -251 -217 -463 -270 -628 -88 -271 -131 -664 -151 -1364 l-6
-238 -171 0 -171 0 38 38 c56 53 68 90 73 227 7 153 -8 215 -84 350 -81 144
-116 194 -156 221 l-35 24 19 62 c43 142 45 382 4 653 -56 372 -237 708 -478
889 -27 20 -59 36 -71 36 -14 0 -53 27 -102 70 -125 111 -246 214 -286 244
l-38 28 0 -29 c0 -23 11 -39 47 -70 65 -54 327 -251 383 -287 67 -44 209 -191
262 -272 116 -177 185 -358 227 -594 54 -301 40 -662 -29 -735 -11 -12 -20
-31 -20 -42 0 -50 -144 -214 -250 -284 l-45 -30 -5 81 c-6 84 -18 107 -49 90
-139 -72 -302 -121 -448 -136 -69 -6 -73 -8 -73 -32 l0 -25 82 8 c138 11 263
47 385 108 l51 26 4 -84 c2 -47 8 -88 12 -92 23 -24 261 158 306 234 50 83 86
132 97 133 26 0 74 -55 134 -157 103 -175 112 -204 112 -365 -1 -149 2 -141
-71 -242 -32 -45 -32 -46 -13 -63 29 -24 38 -25 221 -34 91 -4 175 -9 187 -10
31 -2 111 -91 148 -165 26 -53 29 -68 27 -143 -1 -67 -7 -92 -27 -130 -52 -95
-123 -177 -199 -230 -76 -52 -107 -82 -70 -66 10 4 30 10 43 13 l24 5 -5 -105
c-5 -116 -23 -161 -98 -250 -54 -63 -106 -86 -220 -98 -230 -24 -269 -12 -396
117 -45 46 -86 83 -90 83 -13 0 -8 -200 5 -234 45 -113 232 -310 380 -401 9
-5 31 -20 48 -33 37 -26 276 -146 313 -157 14 -4 41 -16 60 -26 73 -38 304
-101 560 -154 310 -64 418 -105 502 -192 95 -97 120 -219 100 -485 -19 -249
-54 -388 -101 -401 -32 -8 -35 10 -7 44 14 17 26 35 26 40 0 19 -64 207 -91
267 -24 53 -32 63 -50 60 -23 -3 -26 -9 -47 -100 -21 -84 -63 -158 -139 -238
-64 -68 -89 -86 -177 -130 -100 -50 -239 -89 -271 -76 -8 3 -15 14 -15 26 0
69 -136 394 -183 439 -29 26 -51 20 -43 -14 11 -43 -91 -303 -204 -521 -164
-314 -400 -541 -732 -702 -112 -54 -232 -98 -333 -123 -81 -19 -185 -26 -185
-11 0 4 16 32 36 62 122 188 190 407 196 640 3 89 2 95 -17 95 -17 0 -21 -9
-27 -65 -23 -198 -30 -249 -40 -283 l-11 -38 -17 45 c-10 24 -44 81 -76 126
-33 45 -66 93 -75 106 -9 13 -19 27 -22 30 -3 4 -6 -143 -6 -325 0 -242 3
-331 12 -331 8 0 8 -3 -1 -12 -7 -7 -12 -41 -12 -84 0 -61 3 -73 18 -77 16 -4
16 -5 0 -6 -17 -1 -18 -33 -18 -526 l0 -525 826 0 c781 0 825 1 820 18 -12 37
-166 695 -172 731 l-6 39 138 45 c77 25 175 55 219 67 43 12 85 24 92 27 12 5
44 -56 135 -257 11 -25 90 -186 175 -357 l155 -313 1219 0 c670 0 1219 4 1219
8 0 4 8 62 17 127 14 96 18 190 17 465 0 306 -2 361 -22 485 -12 77 -28 165
-36 195 -8 30 -12 58 -10 62 3 4 57 -30 122 -75 155 -109 277 -192 387 -262
50 -32 92 -62 93 -66 10 -27 253 -113 422 -150 88 -20 132 -23 270 -23 l165 1
125 56 c69 31 229 97 355 147 127 51 245 101 264 112 19 11 134 66 255 123
122 56 280 132 351 167 390 192 567 271 576 257 44 -66 63 -152 75 -342 6
-107 5 -119 -12 -138 -37 -41 -94 -62 -186 -67 l-88 -5 0 37 c0 42 66 209 147
370 30 59 52 110 49 113 -15 15 -41 -16 -86 -108 -42 -82 -122 -273 -153 -361
-3 -10 -34 -32 -69 -49 -137 -69 -322 -211 -489 -375 l-95 -94 -75 0 c-148 0
-265 -54 -390 -179 -93 -93 -180 -217 -235 -335 -39 -85 -41 -96 -16 -96 12 0
28 24 52 78 66 147 187 306 300 393 51 39 116 72 175 88 42 11 135 15 135 5 0
-3 -33 -42 -73 -87 -113 -128 -367 -454 -367 -472 0 -3 89 -5 198 -5 l197 0
22 33 c65 96 191 181 316 213 67 18 67 18 89 -3 18 -18 22 -34 22 -90 1 -37
-2 -87 -7 -111 l-7 -42 566 2 566 3 62 107 c33 59 66 106 71 104 15 -4 33 -84
34 -153 l1 -63 506 0 506 0 61 47 c249 190 452 366 670 581 l157 155 0 4734 0
4733 -22 1 c-22 1 -22 1 2 9 l25 7 -30 5 -30 5 28 2 c23 1 27 5 27 32 l0 32
-142 -7 c-146 -7 -399 -26 -658 -47 l-145 -13 -120 73 c-155 93 -575 302 -778
386 l-158 65 -3022 -1 c-1810 0 -3014 -4 -3002 -9 11 -5 79 -35 150 -66 183
-79 688 -330 824 -408 133 -78 288 -189 386 -279 l70 -65 -39 -16 c-90 -38
-465 -272 -621 -389 -211 -157 -315 -243 -315 -261 0 -6 -15 -20 -33 -29 -19
-10 -45 -28 -58 -40 -29 -26 -76 -66 -149 -127 -51 -42 -107 -97 -183 -178
-17 -18 -34 -29 -38 -25 -13 14 -88 302 -118 457 -63 322 -138 868 -166 1213
-8 103 -15 196 -15 205 0 17 -29 18 -484 18 l-485 0 5 -57 c69 -795 197 -1320
540 -2213 52 -134 110 -276 128 -314 l34 -70 -78 -135 c-42 -75 -86 -153 -96
-173 l-19 -37 0 87 c0 82 -2 92 -43 177 -58 119 -136 235 -253 375 -241 287
-609 621 -979 888 -58 42 -113 90 -122 107 -163 301 -196 396 -219 630 -12
120 -7 649 7 708 6 24 3 27 -19 27 -24 0 -25 -2 -31 -92z m4916 -1380 c1 -13
0 -36 -1 -53 -13 -222 -11 -361 7 -508 l20 -157 66 -65 c36 -36 71 -64 78 -63
12 3 25 -31 27 -69 1 -17 -9 -28 -41 -43 -23 -11 -47 -20 -54 -20 -18 0 -22
-21 -12 -55 5 -16 14 -47 19 -68 27 -108 71 -154 92 -96 6 16 17 29 24 29 7 0
22 10 35 23 13 13 34 22 48 21 46 -3 100 -16 100 -25 0 -4 23 -11 50 -15 28
-4 50 -9 50 -13 0 -3 14 -12 30 -19 34 -16 42 -52 11 -52 -10 0 -22 -7 -25
-16 -9 -22 2 -291 15 -394 6 -47 20 -107 31 -134 l19 -49 -28 18 c-147 94
-297 258 -375 410 -50 96 -120 272 -169 424 -54 168 -119 425 -121 481 -1 25
-7 48 -12 52 -7 5 -7 8 -1 8 7 0 9 40 8 108 -3 125 18 285 44 330 22 39 62 45
65 10z m-521 -155 c-17 -21 -31 -44 -31 -52 0 -8 -11 -28 -23 -45 -61 -80
-162 -302 -259 -566 -11 -30 -23 -64 -28 -75 -4 -11 -13 -39 -19 -61 -18 -67
9 -105 29 -41 9 28 9 29 6 4 -5 -39 16 -29 27 12 4 18 10 31 13 28 3 -2 -2
-24 -11 -48 -45 -123 -90 -265 -115 -359 l-27 -105 -8 105 c-9 130 1 300 16
300 4 0 10 26 14 58 4 31 10 70 15 85 7 20 6 26 -2 21 -7 -4 -8 -3 -4 4 4 6
14 50 22 98 17 97 74 265 103 305 11 15 27 42 35 60 25 54 63 113 75 117 6 2
11 8 11 14 0 18 103 140 134 159 50 30 60 23 27 -18z m307 -80 c52 -432 247
-1042 420 -1313 65 -102 207 -236 360 -340 94 -63 113 -45 67 68 -14 34 -31
101 -39 149 -15 93 -32 353 -22 353 3 0 41 -24 84 -54 222 -151 601 -212 1603
-257 226 -10 265 -9 334 5 42 9 81 16 86 16 5 0 30 -46 57 -102 27 -57 65
-127 86 -157 23 -35 36 -64 36 -86 0 -42 9 -65 25 -65 9 0 14 42 19 156 4 86
11 166 15 178 8 19 11 16 32 -29 57 -122 140 -246 269 -400 41 -49 78 -92 81
-95 3 -3 32 -34 64 -70 70 -78 185 -200 310 -330 l92 -95 -9 -105 c-5 -58 -13
-109 -18 -114 -5 -5 -29 8 -57 31 -289 241 -875 485 -1223 510 -62 4 -90 3
-90 -5 0 -6 21 -13 48 -17 246 -31 629 -159 897 -299 132 -69 354 -206 397
-246 l28 -25 -16 -75 c-8 -41 -43 -156 -76 -255 -46 -138 -66 -185 -86 -202
-25 -21 -25 -24 -11 -39 12 -11 21 -13 35 -6 11 5 53 20 94 32 98 29 259 98
389 167 l104 55 -7 -42 c-3 -23 -20 -67 -35 -99 -16 -32 -26 -62 -23 -67 10
-14 236 -39 354 -39 l97 0 16 -40 c54 -133 32 -491 -51 -824 -54 -217 -117
-348 -243 -503 -39 -48 -71 -92 -71 -98 0 -16 70 -12 156 10 98 24 256 102
348 169 73 54 90 61 82 34 -3 -10 -42 -148 -86 -308 -45 -159 -95 -333 -110
-385 -16 -52 -27 -96 -25 -99 9 -8 54 108 127 327 40 122 76 222 80 222 13 0
130 -145 153 -190 36 -70 55 -148 55 -221 0 -130 -88 -661 -136 -819 -13 -46
-29 -67 -92 -129 -42 -40 -92 -81 -111 -90 -20 -9 -64 -33 -98 -54 -94 -58
-177 -92 -314 -131 -68 -19 -125 -33 -127 -31 -2 2 21 36 51 75 30 39 61 83
68 98 8 15 18 30 24 34 7 5 7 8 0 8 -12 0 -123 -119 -315 -340 -184 -212 -321
-351 -442 -452 -53 -44 -114 -95 -135 -114 -21 -19 -42 -34 -47 -34 -5 0 -17
-6 -25 -14 -15 -14 -273 -139 -636 -309 -77 -36 -230 -109 -340 -162 -241
-117 -498 -238 -580 -272 -33 -14 -93 -42 -135 -63 -41 -21 -155 -70 -253
-110 -97 -39 -214 -88 -260 -109 -142 -65 -328 -76 -539 -31 -156 34 -378 109
-378 128 0 4 -21 20 -48 36 -67 42 -356 235 -492 329 -63 44 -158 109 -210
145 -286 198 -602 441 -748 577 -114 106 -465 501 -637 715 -228 285 -301 473
-370 955 -36 254 -34 245 -50 245 -11 0 -15 -12 -15 -42 0 -59 46 -367 74
-502 13 -61 22 -114 19 -118 -2 -5 -46 -8 -96 -8 l-92 0 -100 75 c-55 42 -137
109 -182 150 -244 223 -375 525 -414 953 -31 329 48 763 186 1031 55 107 115
171 189 201 l56 22 62 -57 63 -56 27 -202 c15 -111 30 -229 33 -262 4 -33 10
-69 15 -80 7 -18 53 -238 108 -520 14 -68 22 -91 35 -93 30 -6 26 20 -72 486
-33 156 -105 632 -97 640 13 12 184 -64 233 -105 30 -23 57 -43 62 -43 5 0 14
-27 21 -61 13 -63 66 -186 76 -176 3 3 1 22 -5 44 -27 100 -42 183 -39 209 3
27 8 30 73 46 91 22 386 64 542 78 224 19 557 31 652 24 l93 -7 -5 -36 c-9
-58 -83 -116 -193 -155 -37 -13 -48 -13 -95 1 -29 9 -65 23 -80 32 -39 24
-115 96 -123 116 -3 10 -9 15 -12 12 -10 -9 26 -67 67 -108 121 -121 297 -106
425 34 33 37 54 69 54 84 0 24 0 24 93 18 376 -24 658 -64 678 -96 13 -21 -13
-244 -41 -367 -24 -100 -24 -102 -5 -102 27 0 73 200 82 358 6 109 6 108 63
92 42 -12 61 1 38 27 -37 44 -46 141 -18 209 8 18 10 44 6 66 -6 33 -13 39
-84 73 -110 53 -210 83 -349 106 -307 50 -750 41 -1083 -22 -316 -60 -718
-185 -893 -277 -29 -15 -55 -28 -58 -30 -10 -5 -36 68 -55 154 -19 90 -22 316
-5 456 15 120 53 332 62 341 4 5 28 -31 54 -80 117 -219 193 -327 255 -362
l40 -22 0 38 c-1 21 -7 70 -15 108 -31 148 -29 542 6 900 12 130 16 145 37
145 9 0 29 20 43 43 14 23 122 132 240 241 118 110 268 252 334 316 66 64 158
153 205 198 47 44 108 108 135 141 28 34 52 61 55 61 3 0 5 -84 5 -188 1 -103
7 -234 14 -292 21 -168 74 -310 117 -310 19 0 19 0 -22 97 -74 169 130 772
414 1225 75 120 251 367 262 368 3 0 11 -48 18 -107z m1365 -235 c29 -29 73
-70 99 -91 56 -44 60 -49 115 -113 100 -117 201 -249 193 -252 -5 -2 -20 6
-32 18 -13 12 -49 43 -82 68 -92 74 -158 141 -150 154 4 6 3 8 -4 4 -6 -3 -13
-2 -17 4 -3 5 -15 10 -26 10 -22 0 -52 -24 -43 -33 4 -3 -11 -9 -32 -13 -22
-4 -42 -12 -46 -18 -8 -12 -58 30 -58 50 0 7 13 28 30 47 23 27 35 33 58 29
45 -6 47 14 9 61 -32 39 -77 111 -77 122 0 12 15 1 63 -47z m-3592 0 c-17 -18
-31 -36 -31 -39 0 -4 -9 -18 -20 -32 -24 -30 -57 -27 -38 3 7 10 15 17 19 14
4 -2 24 16 45 41 20 25 41 45 46 45 5 0 -5 -15 -21 -32z m-94 -132 c-10 -22
-13 -22 -24 -7 -15 19 -17 35 -3 26 6 -3 10 -2 10 4 0 6 6 8 14 5 11 -4 11
-10 3 -28z m-27 -32 c0 -17 -7 -25 -26 -30 -16 -4 -23 -12 -20 -20 3 -8 -1
-14 -9 -14 -8 0 -15 -6 -15 -13 0 -7 -16 -27 -35 -46 -19 -18 -35 -37 -35 -42
0 -5 -4 -9 -10 -9 -14 0 -12 26 3 42 6 7 26 33 42 57 17 25 40 56 53 69 12 14
22 29 22 33 0 5 7 6 15 3 8 -4 15 -17 15 -30z m3524 -140 c23 -22 20 -43 -4
-37 -25 7 -32 17 -24 37 8 20 9 20 28 0z m-194 -46 c0 -5 -7 -8 -16 -8 -8 0
-22 -7 -31 -15 -12 -12 -18 -13 -29 -4 -20 16 -17 36 7 53 20 13 24 13 45 -2
13 -9 24 -20 24 -24z m-1927 -78 c3 -11 1 -23 -4 -26 -5 -3 -9 -12 -9 -21 0
-9 -15 -36 -32 -61 -36 -50 -269 -284 -277 -277 -2 3 7 22 21 42 46 71 78 123
78 128 0 11 -59 34 -65 25 -4 -6 -11 -8 -16 -5 -17 11 -9 41 15 64 25 23 35
24 97 5 18 -5 18 -5 98 85 56 63 85 76 94 41z m1470 6 c9 -7 17 -25 17 -40 0
-23 -4 -27 -22 -24 -16 2 -24 12 -29 35 -9 45 1 54 34 29z m-1818 -83 c-5 -10
-13 -36 -19 -59 -6 -23 -23 -59 -37 -80 -14 -21 -37 -57 -50 -78 -12 -22 -25
-34 -27 -28 -7 23 50 172 84 216 35 46 63 62 49 29z m-1295 -4 c0 -5 5 -7 10
-4 6 3 10 -1 10 -10 0 -12 -6 -15 -22 -10 -15 4 -19 3 -10 -3 10 -7 10 -15 2
-37 -6 -16 -8 -35 -5 -43 4 -10 0 -12 -11 -8 -13 5 -15 1 -10 -19 8 -33 -15
-33 -30 0 -10 20 -8 31 8 61 10 20 17 38 14 41 -5 5 25 41 37 42 4 1 7 -4 7
-10z m6048 -164 c12 -47 29 -126 52 -240 18 -89 10 -471 -10 -448 -6 7 -39
235 -61 418 -10 92 -10 81 -8 202 0 51 -2 107 -6 125 -5 30 -5 31 7 13 7 -11
19 -42 26 -70z m-230 -118 c-2 -10 -7 -19 -12 -20 -12 -2 -27 53 -19 66 9 14
34 -24 31 -46z m-2393 24 c7 -12 -12 -24 -25 -16 -11 7 -4 25 10 25 5 0 11 -4
15 -9z m65 -9 c0 -15 77 -29 138 -25 42 4 62 2 62 -6 0 -6 17 -11 40 -11 22 0
40 -4 40 -9 0 -5 9 -7 20 -4 10 3 39 -4 62 -15 58 -27 108 -36 203 -37 44 0
85 -3 91 -7 6 -4 26 -3 45 3 19 6 43 12 54 14 42 5 85 18 85 26 0 4 9 10 20
13 11 3 29 9 40 12 15 4 20 1 20 -15 0 -25 -3 -25 45 -1 24 12 41 16 45 10 3
-6 28 -10 56 -9 27 1 81 -6 119 -15 159 -38 221 -47 312 -42 51 3 95 1 97 -3
3 -4 34 -22 70 -40 39 -20 63 -38 60 -46 -6 -14 18 -26 61 -31 119 -13 202
-51 165 -74 -33 -21 -130 -32 -242 -28 -65 2 -119 1 -120 -3 -2 -4 -52 -4
-113 1 -60 5 -207 17 -325 25 -498 37 -803 82 -984 144 -107 37 -236 120 -236
152 0 6 7 9 15 5 8 -3 14 -2 14 2 -3 17 2 22 21 22 11 0 20 -3 20 -8z m2499
-35 c25 -27 21 -44 -15 -71 -52 -37 -97 17 -62 74 17 27 50 25 77 -3z m-525
-51 c-3 -8 -1 -17 5 -21 6 -3 11 1 11 9 0 9 4 16 9 16 5 0 12 -22 16 -50 6
-47 9 -50 45 -60 32 -9 38 -14 36 -35 -1 -26 -3 -26 -73 -2 -26 9 -37 23 -61
76 -27 59 -28 67 -13 73 25 10 31 9 25 -6z m-4990 -326 c-3 -25 -11 -61 -19
-80 -7 -19 -20 -78 -29 -130 -10 -52 -22 -105 -28 -117 -6 -12 -8 -33 -4 -47
5 -20 13 -26 34 -26 37 0 58 -18 65 -55 7 -41 -3 -55 -44 -61 -25 -4 -39 -1
-48 10 -27 32 -36 18 -51 -78 -5 -34 -14 -81 -20 -106 -5 -25 -17 -76 -25
-115 -17 -85 -55 -233 -66 -260 -4 -11 -10 -37 -14 -57 -3 -21 -11 -38 -17
-38 -8 0 -8 50 -3 173 5 94 8 183 7 197 0 14 4 33 10 43 5 10 11 47 13 81 6
110 86 398 172 621 35 90 51 121 40 76 -6 -22 -5 -23 10 -8 13 12 14 19 4 30
-6 8 -8 23 -4 33 11 30 24 -33 17 -86z m575 -11 c-45 -43 -85 -76 -87 -74 -15
15 55 128 75 121 6 -3 15 3 18 14 3 10 12 21 20 24 9 3 12 0 8 -10 -8 -21 15
-17 29 6 7 11 15 15 17 9 2 -6 -34 -46 -80 -90z m4573 84 c0 -10 2 -29 3 -43
1 -14 5 -42 9 -63 4 -24 3 -37 -4 -37 -8 0 -7 -6 0 -21 7 -11 9 -23 7 -26 -6
-5 -87 152 -87 169 0 13 34 34 58 37 6 0 13 -7 14 -16z m433 -402 c-3 -6 -11
-11 -17 -11 -6 0 -6 6 2 15 14 17 26 13 15 -4z m2 -30 c13 11 17 11 20 2 3 -8
14 -11 28 -7 26 6 32 -9 44 -109 l8 -59 -31 34 c-17 18 -47 53 -66 78 -19 25
-38 47 -42 48 -5 2 -8 8 -8 14 0 6 6 6 15 -2 12 -10 18 -10 32 1z m-5479 -118
c-4 -34 -26 -41 -37 -11 -6 17 -5 25 8 30 28 12 32 9 29 -19z m6049 -175 c-3
-8 -6 -5 -6 6 -1 11 2 17 5 13 3 -3 4 -12 1 -19z m-6598 -263 c0 -55 1 -107 0
-115 0 -8 3 -37 6 -65 l5 -50 -14 37 c-8 20 -17 63 -21 95 -4 32 -14 73 -22
90 -9 19 -13 45 -10 60 4 16 11 51 17 78 6 28 14 66 18 85 5 30 7 24 13 -40 4
-41 8 -120 8 -175z m6884 30 c-4 -90 -23 -227 -41 -296 -13 -52 -68 -155 -110
-211 -40 -51 -52 -58 -52 -29 0 10 -10 26 -22 34 -20 14 -21 18 -8 27 12 9 10
10 -8 5 -34 -10 -85 39 -77 75 11 59 25 244 26 359 1 69 5 134 9 145 8 18 9
19 9 3 1 -10 4 -16 9 -14 4 3 5 -17 4 -44 -3 -39 2 -63 26 -112 29 -60 30 -66
26 -172 -7 -168 -4 -229 9 -237 9 -6 9 -8 0 -8 -7 0 -13 -7 -13 -15 0 -38 28
5 60 90 18 52 37 95 41 95 8 0 33 119 26 126 -3 3 -14 1 -25 -5 -14 -7 -27 -7
-46 2 -35 17 -39 33 -13 57 31 29 64 36 86 16 25 -23 31 -20 31 13 0 15 4 41
9 57 5 16 15 63 22 104 16 96 27 63 22 -65z m-7020 97 c3 -4 -1 -24 -8 -44 -8
-25 -9 -38 -2 -41 6 -2 1 -13 -11 -25 -12 -12 -22 -28 -22 -35 0 -7 -14 -28
-31 -47 -28 -33 -30 -33 -25 -10 3 14 6 34 6 46 0 12 9 31 20 44 11 13 20 30
19 39 0 10 -2 12 -6 4 -2 -7 -9 -13 -14 -13 -6 0 -5 8 1 20 6 11 14 19 18 16
4 -3 14 9 21 25 12 28 25 36 34 21z m760 -335 c4 -111 13 -233 21 -272 8 -38
13 -71 11 -73 -2 -2 -24 26 -50 62 -74 104 -235 435 -170 350 15 -19 15 -19
13 1 -3 48 2 65 22 65 10 0 24 9 30 20 6 11 17 20 25 20 8 0 15 5 15 10 0 6 6
10 14 10 7 0 19 7 26 15 29 35 37 -1 43 -208z m5965 -256 c12 -11 22 -23 22
-28 0 -5 10 -9 21 -10 28 -2 35 -11 21 -25 -17 -17 -15 -31 3 -24 21 8 19 1
-17 -63 -58 -104 -158 -249 -189 -275 -52 -44 -62 -34 -33 32 64 143 115 290
129 375 7 42 11 44 43 18z m424 -258 c-8 -13 -2 -24 27 -50 20 -18 45 -36 56
-39 11 -4 26 -15 33 -25 7 -11 22 -19 32 -19 11 0 24 -9 30 -20 6 -11 18 -19
27 -18 9 2 18 -3 21 -11 4 -12 -15 -13 -119 -7 -143 8 -163 10 -167 16 -2 3 2
18 8 35 6 16 16 52 21 80 14 68 17 75 29 75 7 0 8 -6 2 -17z m-6778 -169 c4
-9 4 -19 1 -22 -3 -3 -5 1 -5 8 0 7 -3 11 -6 8 -3 -4 0 -16 6 -28 6 -11 20
-56 31 -98 11 -42 26 -90 34 -107 7 -16 12 -31 10 -33 -10 -10 -114 43 -123
62 -24 49 -33 93 -23 119 5 14 7 27 4 30 -10 11 9 66 25 70 32 9 40 7 46 -9z
m-344 -55 c0 -5 -4 -9 -10 -9 -5 0 -10 7 -10 16 0 8 5 12 10 9 6 -3 10 -10 10
-16z m15 -37 c-2 -7 0 -10 5 -7 5 3 18 1 27 -4 17 -10 16 -10 -3 -11 -11 0
-29 -7 -40 -15 -28 -21 -31 -19 -32 20 -1 31 1 35 24 33 16 -2 23 -7 19 -16z
m7535 -82 c0 -5 -4 -10 -10 -10 -5 0 -10 5 -10 10 0 6 5 10 10 10 6 0 10 -4
10 -10z m15 -39 c7 -13 25 -158 29 -235 6 -148 -25 -377 -64 -461 -5 -11 -12
-34 -15 -52 -5 -23 -10 -30 -22 -26 -13 5 -14 0 -8 -25 4 -18 3 -32 -3 -32 -5
0 -15 -28 -22 -62 -7 -35 -16 -65 -20 -68 -3 -3 -15 -34 -25 -70 -11 -36 -27
-81 -36 -100 -10 -19 -15 -38 -12 -42 2 -5 0 -8 -6 -8 -6 0 -17 -15 -26 -33
-13 -27 -26 -37 -71 -51 -31 -10 -58 -16 -60 -13 -3 2 6 17 19 33 104 126 200
336 240 524 43 201 75 465 78 643 1 79 8 103 24 78z m-6872 -108 c-7 -2 -21
-2 -30 0 -10 3 -4 5 12 5 17 0 24 -2 18 -5z m-2348 -1403 c38 -39 109 -84 159
-100 30 -10 67 -10 170 -1 165 15 220 31 274 77 24 20 46 34 49 30 3 -3 7 -27
9 -53 2 -27 11 -142 19 -258 8 -115 18 -236 21 -267 5 -51 4 -58 -12 -58 -29
0 -253 114 -349 178 -161 107 -311 256 -365 363 -20 38 -28 119 -12 119 5 0
21 -14 37 -30z m9362 -1192 c-3 -8 -6 -5 -6 6 -1 11 2 17 5 13 3 -3 4 -12 1
-19z m-8547 -595 c0 -45 49 -427 76 -588 29 -176 39 -221 52 -238 10 -13 232
-544 232 -555 0 -4 -36 -15 -79 -25 -43 -10 -145 -39 -226 -65 -144 -47 -147
-48 -156 -28 -4 12 -38 158 -74 326 -37 168 -75 323 -85 345 -20 45 -70 200
-70 218 0 7 20 42 45 79 55 83 168 308 226 451 44 108 59 129 59 80z m111
-408 c-6 -35 -9 -41 -10 -20 -1 30 9 78 15 73 2 -2 -1 -26 -5 -53z m19 -96 c0
-5 -4 -9 -10 -9 -5 0 -10 7 -10 16 0 8 5 12 10 9 6 -3 10 -10 10 -16z m6945 4
c-45 -116 -96 -425 -102 -625 -3 -93 -7 -168 -8 -168 -2 0 -29 13 -61 29 -33
16 -79 35 -104 42 -25 7 -48 15 -51 18 -4 3 -12 76 -19 161 -14 191 -34 284
-67 318 -13 13 -23 25 -21 27 2 1 86 43 188 92 102 50 194 98 205 106 27 22
49 22 40 0z m-6915 -208 c11 -43 18 -81 16 -82 -8 -8 -45 106 -49 149 -5 48 5
80 11 36 2 -12 12 -59 22 -103z m-1685 65 c3 -5 1 -10 -4 -10 -6 0 -11 5 -11
10 0 6 2 10 4 10 3 0 8 -4 11 -10z m1170 -91 c5 -7 3 -10 -6 -7 -8 3 -14 11
-14 19 -1 8 -6 13 -13 11 -9 -1 -9 3 0 18 13 20 13 20 19 -4 4 -14 10 -30 14
-37z m-65 -3 c0 -2 -8 -10 -17 -17 -16 -13 -17 -12 -4 4 13 16 21 21 21 13z
m-993 -58 c-3 -8 -6 -5 -6 6 -1 11 2 17 5 13 3 -3 4 -12 1 -19z m978 -5 c3 -9
2 -20 -3 -25 -11 -11 -42 0 -42 14 0 6 7 5 15 -2 23 -19 31 -3 10 20 -16 17
-16 20 -3 15 9 -4 19 -14 23 -22z m-965 -33 c0 -5 -5 -10 -11 -10 -5 0 -7 5
-4 10 3 6 8 10 11 10 2 0 4 -4 4 -10z m-63 -42 c-3 -8 -6 -5 -6 6 -1 11 2 17
5 13 3 -3 4 -12 1 -19z m943 8 c0 -3 -4 -8 -10 -11 -5 -3 -10 -1 -10 4 0 6 5
11 10 11 6 0 10 -2 10 -4z m5 -35 c-3 -6 -11 -11 -16 -11 -5 0 -4 6 3 14 14
16 24 13 13 -3z m-905 -28 c-11 -17 -11 -17 -6 0 3 10 6 24 7 30 0 9 2 9 5 0
3 -7 0 -20 -6 -30z m1081 14 c-10 -9 -11 -8 -5 6 3 10 9 15 12 12 3 -3 0 -11
-7 -18z m-261 -17 c0 -5 -4 -10 -10 -10 -5 0 -10 5 -10 10 0 6 5 10 10 10 6 0
10 -4 10 -10z m-71 -42 c-11 -21 -18 -22 -39 -7 -12 8 -9 9 9 4 19 -6 23 -4
18 7 -3 8 1 15 8 15 10 0 11 -5 4 -19z m71 18 c0 -3 -4 -8 -10 -11 -5 -3 -10
-1 -10 4 0 6 5 11 10 11 6 0 10 -2 10 -4z m-870 -80 c0 -2 -7 -7 -16 -10 -8
-3 -12 -2 -9 4 6 10 25 14 25 6z m8813 -34 c30 -33 65 -127 78 -205 15 -97 7
-272 -21 -456 -11 -73 -20 -135 -20 -136 0 -2 -14 -8 -31 -14 -67 -23 -151 56
-185 174 -27 98 -23 156 23 280 22 61 57 170 79 243 21 72 44 132 50 132 6 0
18 -8 27 -18z m-8213 -16 c0 -3 -4 -8 -10 -11 -5 -3 -10 -1 -10 4 0 6 5 11 10
11 6 0 10 -2 10 -4z m-640 -10 c0 -3 -4 -8 -10 -11 -5 -3 -10 -1 -10 4 0 6 5
11 10 11 6 0 10 -2 10 -4z m660 -20 c0 -3 -4 -8 -10 -11 -5 -3 -10 -1 -10 4 0
6 5 11 10 11 6 0 10 -2 10 -4z m610 -42 c0 -8 -4 -12 -10 -9 -5 3 -10 13 -10
21 0 8 5 12 10 9 6 -3 10 -13 10 -21z m-833 -20 c-3 -3 -12 -4 -19 -1 -8 3 -5
6 6 6 11 1 17 -2 13 -5z m840 -26 c-3 -8 -6 -5 -6 6 -1 11 2 17 5 13 3 -3 4
-12 1 -19z m7951 -18 c-11 -19 -31 -47 -44 -61 -13 -14 -21 -29 -17 -34 5 -4
2 -5 -4 -1 -10 5 -13 -4 -13 -33 0 -22 -6 -44 -13 -48 -7 -4 -18 -20 -24 -34
-9 -21 -22 -28 -65 -37 -29 -5 -55 -9 -56 -7 -12 12 16 70 52 110 24 26 43 54
42 63 -1 11 8 18 22 20 13 2 26 10 29 18 3 9 13 12 28 8 17 -4 24 0 28 17 4
13 1 27 -6 32 -8 6 -6 7 6 3 11 -3 17 0 17 9 0 7 8 13 19 12 18 -1 18 -2 -1
-37z m-8891 14 c-3 -3 -12 -4 -19 -1 -8 3 -5 6 6 6 11 1 17 -2 13 -5z m-30
-20 c-3 -3 -12 -4 -19 -1 -8 3 -5 6 6 6 11 1 17 -2 13 -5z m983 2 c0 -3 -4 -8
-10 -11 -5 -3 -10 -1 -10 4 0 6 5 11 10 11 6 0 10 -2 10 -4z m-1030 -10 c0
-11 -19 -15 -25 -6 -3 5 1 10 9 10 9 0 16 -2 16 -4z m1037 -93 c-2 -16 -4 -5
-4 22 0 28 2 40 4 28 2 -13 2 -35 0 -50z"/>
<path d="M5420 8091 c0 -6 4 -13 10 -16 6 -3 7 1 4 9 -7 18 -14 21 -14 7z"/>
<path d="M4435 7194 c-16 -2 -72 -9 -124 -15 -224 -26 -453 -102 -649 -216
-64 -38 -43 -39 29 -2 141 71 390 143 600 175 64 9 232 18 437 23 183 5 335
11 338 14 23 23 -25 27 -304 26 -163 -1 -310 -4 -327 -5z"/>
<path d="M7373 5572 c-19 -12 1 -79 37 -124 l32 -39 -36 -51 c-28 -40 -33 -55
-25 -69 5 -11 13 -19 17 -19 53 -1 499 -84 537 -99 11 -5 46 -14 78 -21 31 -6
57 -17 57 -23 0 -22 -38 -74 -72 -101 -67 -50 -213 -60 -294 -18 -62 32 -146
134 -148 180 -1 38 -32 42 -39 5 -3 -15 -17 -59 -32 -98 -35 -91 -85 -281 -85
-322 0 -22 5 -33 14 -33 10 0 21 29 35 93 27 116 82 287 93 287 4 0 8 -4 8 -9
0 -21 104 -121 148 -143 39 -19 63 -23 137 -23 80 0 97 3 150 30 66 33 105 80
105 127 0 23 4 28 18 24 9 -3 87 -26 172 -51 85 -24 238 -71 340 -103 l185
-59 3 -70 c5 -124 -43 -377 -85 -442 -13 -20 -13 -25 -2 -32 23 -15 26 -11 53
58 35 90 64 235 74 363 6 85 10 104 22 102 27 -6 611 -220 617 -226 23 -23
-72 -200 -141 -264 -52 -48 -43 -54 23 -16 80 46 141 97 183 152 34 46 39 59
34 87 -13 66 -167 240 -287 322 -30 21 -93 69 -140 106 -243 197 -581 337
-1049 436 -320 68 -695 110 -737 83z m1967 -722 c0 -5 -2 -10 -4 -10 -3 0 -8
5 -11 10 -3 6 -1 10 4 10 6 0 11 -4 11 -10z m-55 -20 c4 -6 -6 -10 -22 -10
-22 0 -25 2 -13 10 19 12 27 12 35 0z m61 -19 l24 -19 -33 3 c-17 2 -36 3 -40
4 -7 1 13 30 21 31 2 0 15 -8 28 -19z m80 -42 c28 -30 28 -31 4 -19 -14 7 -28
18 -32 24 -5 8 -8 7 -8 -1 0 -7 -7 -10 -15 -7 -11 5 -12 9 -2 20 17 19 20 18
53 -17z"/>
<path d="M3744 5535 c-24 -95 40 -585 76 -585 19 0 19 22 1 102 -23 101 -29
150 -41 342 -9 147 -22 197 -36 141z"/>
<path d="M5111 4968 c-12 -32 6 -49 25 -24 8 11 14 26 14 33 0 22 -30 15 -39
-9z"/>
<path d="M3840 4885 c0 -8 7 -15 15 -15 8 0 15 7 15 15 0 8 -7 15 -15 15 -8 0
-15 -7 -15 -15z"/>
<path d="M5045 4830 c-3 -5 1 -10 9 -10 9 0 16 5 16 10 0 6 -4 10 -9 10 -6 0
-13 -4 -16 -10z"/>
<path d="M4969 4826 c-3 -3 -124 -15 -269 -27 -275 -22 -722 -31 -772 -15 -22
6 -28 5 -28 -8 0 -8 9 -20 19 -26 64 -34 1034 15 1065 54 6 8 18 16 26 19 9 3
4 6 -11 6 -14 1 -28 -1 -30 -3z"/>
<path d="M7400 4680 c0 -5 5 -10 10 -10 6 0 10 5 10 10 0 6 -4 10 -10 10 -5 0
-10 -4 -10 -10z"/>
<path d="M7390 4588 c0 -6 20 -30 44 -53 62 -58 127 -76 731 -210 33 -7 134
-30 225 -50 241 -53 364 -75 374 -65 16 16 -5 29 -55 36 -58 8 -70 20 -39 41
16 12 19 18 10 27 -8 8 -18 4 -37 -19 l-26 -29 -136 28 c-234 48 -632 135
-736 162 -207 52 -258 71 -295 109 -34 35 -60 45 -60 23z"/>
<path d="M9556 2885 c-15 -19 -24 -35 -20 -35 7 0 28 25 45 53 16 29 3 19 -25
-18z"/>
<path d="M6450 2640 c-151 -4 -309 -10 -350 -14 -132 -13 -804 -43 -837 -39
-30 5 -46 -8 -53 -42 -1 -5 -7 -21 -12 -35 -14 -38 -11 -169 5 -222 21 -68 79
-167 132 -226 41 -46 130 -112 150 -112 5 0 -27 37 -71 83 -63 64 -90 102
-127 177 -60 121 -74 199 -50 283 l16 57 40 -4 c22 -3 140 1 261 9 286 20 332
22 633 36 288 14 256 22 342 -86 75 -94 87 -105 115 -105 32 0 179 76 218 112
17 16 34 25 38 21 21 -24 51 -120 56 -181 8 -81 -6 -135 -63 -247 -65 -128
-127 -188 -272 -260 -18 -9 -57 -19 -85 -22 -82 -9 -68 -16 19 -10 44 3 96 12
115 20 41 18 160 103 160 115 0 4 10 18 23 32 64 70 131 208 143 297 7 56 -19
195 -42 218 -8 7 -14 20 -14 27 0 21 -50 89 -61 83 -5 -4 -9 -1 -9 4 0 6 -4
11 -10 11 -18 0 -10 -19 11 -25 15 -5 17 -10 10 -19 -6 -7 -8 -16 -4 -19 3 -4
-1 -7 -10 -7 -9 0 -20 -7 -24 -15 -9 -15 -172 -95 -195 -95 -15 0 -56 41 -106
106 -35 46 -40 64 -17 64 8 0 15 4 15 8 0 4 30 8 68 9 37 1 102 3 145 6 42 2
77 0 77 -5 0 -5 5 -6 11 -3 34 22 -31 24 -391 15z"/>
<path d="M9102 6850 c0 -19 2 -27 5 -17 2 9 2 25 0 35 -3 9 -5 1 -5 -18z"/>
<path d="M2681 5846 c-7 -8 -8 -17 -3 -20 6 -3 13 1 16 10 9 23 2 28 -13 10z"/>
<path d="M9811 4724 c0 -11 3 -14 6 -6 3 7 2 16 -1 19 -3 4 -6 -2 -5 -13z"/>
<path d="M9169 1054 c-12 -14 -11 -16 5 -13 11 2 21 10 24 17 5 17 -13 15 -29
-4z"/>
<path d="M9125 987 c-10 -8 -14 -17 -9 -20 6 -3 15 3 22 14 14 23 12 24 -13 6z"/>
<path d="M1000 10718 c-32 -120 -43 -204 -37 -288 7 -92 48 -236 74 -255 29
-23 115 -38 189 -34 64 4 74 8 116 44 26 21 50 45 53 53 3 8 -6 45 -19 82 -24
65 -80 285 -106 418 -11 54 -16 62 -35 62 -17 0 -22 -5 -19 -17 2 -10 20 -90
39 -178 19 -88 49 -204 66 -258 35 -111 34 -118 -38 -152 -55 -27 -217 -7
-227 27 -44 139 -50 168 -49 258 1 85 28 228 58 303 6 13 2 17 -18 17 -23 0
-27 -7 -47 -82z"/>
<path d="M385 6160 c-11 -5 -33 -21 -50 -35 l-30 -25 30 9 c71 22 102 21 132
-5 53 -47 79 -56 111 -40 16 8 34 22 41 30 7 9 17 14 21 11 4 -3 14 3 21 13
11 14 11 15 0 5 -7 -6 -20 -9 -28 -6 -8 3 -27 -4 -43 -16 -39 -28 -52 -27 -71
8 -17 29 -69 62 -98 60 -9 0 -25 -4 -36 -9z"/>
<path d="M734 6161 c4 -5 0 -12 -6 -14 -10 -4 -10 -6 0 -6 7 -1 20 6 28 14 14
13 13 15 -6 15 -12 0 -19 -4 -16 -9z"/>
<path d="M2 5241 c2 -32 9 -48 25 -58 39 -26 40 9 3 59 l-31 43 3 -44z"/>
<path d="M568 4293 c-9 -10 -26 -38 -38 -63 -13 -25 -65 -87 -116 -139 l-92
-94 -144 5 c-78 3 -151 9 -160 13 -14 6 -18 2 -18 -17 0 -22 6 -25 70 -36 39
-7 112 -12 163 -12 108 0 113 3 224 111 100 99 185 249 140 249 -8 0 -21 -8
-29 -17z"/>
<path d="M1454 3336 c-8 -22 15 -86 32 -86 24 0 19 77 -6 90 -16 9 -22 8 -26
-4z"/>
<path d="M1680 3253 c1 -49 50 -341 80 -473 6 -25 12 -61 15 -80 3 -19 10 -55
15 -80 6 -25 21 -112 34 -195 35 -216 45 -255 63 -255 17 0 17 3 -33 258 -19
96 -34 185 -34 198 0 14 -18 115 -40 225 -22 110 -43 233 -45 272 -3 40 -8 86
-11 102 -11 55 -44 76 -44 28z"/>
</g>
</svg>
